<svg xmlns="http://www.w3.org/2000/svg" version="1.1" xmlns:xlink="http://www.w3.org/1999/xlink" xmlns:svgjs="http://svgjs.dev/svgjs" viewBox="0 0 16.42033258374491 5.980419144181149"><g transform="matrix(1,0,0,1,0.8046230336100004,1.9482720720905746)"><rect width="16.42033258374491" height="16.42033258374491" x="-0.8046230336100004" y="-7.168228791872455" fill="#9bcef3"></rect><g><path d=" M 1.0245 1.23 Q 0.963 1.23 0.897 1.2142499999999998 Q 0.8310000000000001 1.1985 0.74775 1.15275 Q 0.6645 1.107 0.5535 1.0185 Q 0.4215 1.0065 0.318 0.9382499999999999 Q 0.2145 0.8699999999999999 0.156 0.7597499999999999 Q 0.0975 0.6495 0.0975 0.5099999999999999 Q 0.0975 0.3989999999999999 0.135 0.3059999999999998 Q 0.17250000000000001 0.21299999999999986 0.24075 0.14474999999999982 Q 0.309 0.0764999999999999 0.40125 0.038249999999999895 Q 0.4935 -2.220446049250313e-16 0.6015 -2.220446049250313e-16 Q 0.7095 -2.220446049250313e-16 0.80175 0.038249999999999895 Q 0.894 0.0764999999999999 0.96225 0.14474999999999982 Q 1.0305 0.21299999999999986 1.06875 0.3059999999999998 Q 1.107 0.3989999999999999 1.107 0.5099999999999999 Q 1.107 0.6299999999999999 1.062 0.7297499999999999 Q 1.0170000000000001 0.8294999999999999 0.9375 0.8992499999999999 Q 0.858 0.9689999999999999 0.753 0.9989999999999999 Q 0.837 1.0665 0.9 1.1055 Q 0.963 1.1444999999999999 1.01475 1.1609999999999998 Q 1.0665 1.1775 1.116 1.1775 Q 1.1475 1.1775 1.1715 1.1737499999999998 Q 1.1955 1.17 1.212 1.164 L 1.212 1.1894999999999998 Q 1.179 1.2075 1.13025 1.21875 Q 1.0815000000000001 1.23 1.0245 1.23 M 0.6315000000000001 0.9449999999999998 Q 0.723 0.9449999999999998 0.792 0.8969999999999999 Q 0.861 0.8489999999999999 0.9 0.7619999999999999 Q 0.9390000000000001 0.6749999999999998 0.9390000000000001 0.5564999999999999 Q 0.9390000000000001 0.4109999999999999 0.891 0.3022499999999999 Q 0.843 0.1934999999999999 0.7605000000000001 0.13349999999999984 Q 0.678 0.0734999999999999 0.5775 0.0734999999999999 Q 0.486 0.0734999999999999 0.41550000000000004 0.12074999999999991 Q 0.34500000000000003 0.16799999999999993 0.30525 0.2549999999999999 Q 0.2655 0.34199999999999986 0.2655 0.4604999999999999 Q 0.2655 0.6059999999999999 0.31425000000000003 0.7154999999999999 Q 0.363 0.825 0.44625000000000004 0.8849999999999999 Q 0.5295 0.9449999999999998 0.6315000000000001 0.9449999999999998 M 1.8045095214843752 1.0199999999999998 Q 1.689009521484375 1.0199999999999998 1.597509521484375 0.9779999999999999 Q 1.506009521484375 0.9359999999999999 1.454259521484375 0.8459999999999999 Q 1.402509521484375 0.7559999999999999 1.402509521484375 0.6104999999999998 L 1.402509521484375 0.09899999999999987 L 1.281009521484375 0.038999999999999924 L 1.281009521484375 0.014999999999999902 L 1.681509521484375 0.014999999999999902 L 1.681509521484375 0.038999999999999924 L 1.560009521484375 0.09899999999999987 L 1.560009521484375 0.5939999999999999 Q 1.560009521484375 0.7184999999999999 1.599009521484375 0.7912499999999999 Q 1.638009521484375 0.8639999999999999 1.704009521484375 0.8954999999999999 Q 1.770009521484375 0.9269999999999999 1.852509521484375 0.9269999999999999 Q 1.918509521484375 0.9269999999999999 1.974759521484375 0.8992499999999999 Q 2.031009521484375 0.8714999999999999 2.0647595214843752 0.8092499999999999 Q 2.0985095214843748 0.7469999999999999 2.0985095214843748 0.6464999999999999 L 2.0985095214843748 0.09599999999999986 L 1.951509521484375 0.038999999999999924 L 1.951509521484375 0.014999999999999902 L 2.3250095214843753 0.014999999999999902 L 2.3250095214843753 0.038999999999999924 L 2.203509521484375 0.09749999999999992 L 2.203509521484375 0.6104999999999998 Q 2.203509521484375 0.7559999999999999 2.151759521484375 0.8459999999999999 Q 2.100009521484375 0.9359999999999999 2.010009521484375 0.9779999999999999 Q 1.920009521484375 1.0199999999999998 1.8045095214843752 1.0199999999999998 M 2.51097802734375 1.005 L 2.51097802734375 0.9809999999999999 L 2.63397802734375 0.9209999999999999 L 2.63397802734375 0.09899999999999987 L 2.51097802734375 0.038999999999999924 L 2.51097802734375 0.014999999999999902 L 2.91147802734375 0.014999999999999902 L 2.91147802734375 0.038999999999999924 L 2.78997802734375 0.09899999999999987 L 2.78997802734375 0.9209999999999999 L 2.91147802734375 0.9809999999999999 L 2.91147802734375 1.005 L 2.51097802734375 1.005 M 3.60750732421875 1.0199999999999998 Q 3.45300732421875 1.0199999999999998 3.34050732421875 0.9569999999999999 Q 3.22800732421875 0.8939999999999999 3.16650732421875 0.7844999999999999 Q 3.10500732421875 0.6749999999999998 3.10500732421875 0.5354999999999999 Q 3.10500732421875 0.4274999999999999 3.14700732421875 0.3314999999999999 Q 3.1890073242187498 0.23549999999999993 3.26175732421875 0.16049999999999986 Q 3.33450732421875 0.08549999999999991 3.42900732421875 0.042749999999999844 Q 3.52350732421875 -2.220446049250313e-16 3.63000732421875 -2.220446049250313e-16 Q 3.70650732421875 -2.220446049250313e-16 3.75900732421875 0.009749999999999925 Q 3.8115073242187503 0.01949999999999985 3.85275732421875 0.03524999999999989 Q 3.89400732421875 0.05099999999999982 3.93600732421875 0.07199999999999984 L 3.94500732421875 0.33899999999999986 L 3.91800732421875 0.33899999999999986 L 3.81450732421875 0.1439999999999999 Q 3.7635073242187502 0.10799999999999987 3.72225732421875 0.09149999999999991 Q 3.6810073242187498 0.07499999999999984 3.63000732421875 0.07499999999999984 Q 3.52650732421875 0.07499999999999984 3.44400732421875 0.1289999999999999 Q 3.36150732421875 0.18299999999999983 3.31425732421875 0.2782499999999999 Q 3.26700732421875 0.37349999999999983 3.26700732421875 0.4979999999999999 Q 3.26700732421875 0.6375 3.31275732421875 0.73725 Q 3.35850732421875 0.8369999999999999 3.43650732421875 0.8894999999999998 Q 3.51450732421875 0.942 3.60900732421875 0.942 Q 3.68700732421875 0.942 3.7402573242187502 0.9209999999999999 Q 3.79350732421875 0.8999999999999999 3.8355073242187503 0.8714999999999999 L 3.93600732421875 0.7034999999999999 L 3.96150732421875 0.7034999999999999 L 3.94350732421875 0.9449999999999998 Q 3.87750732421875 0.9779999999999999 3.80250732421875 0.9989999999999999 Q 3.7275073242187498 1.0199999999999998 3.60750732421875 1.0199999999999998 M 4.180484619140625 1.005 L 4.180484619140625 0.9809999999999999 L 4.301984619140625 0.9209999999999999 L 4.301984619140625 0.09899999999999987 L 4.180484619140625 0.038999999999999924 L 4.180484619140625 0.014999999999999902 L 4.580984619140625 0.014999999999999902 L 4.580984619140625 0.038999999999999924 L 4.459484619140625 0.09899999999999987 L 4.459484619140625 0.9209999999999999 L 4.580984619140625 0.9809999999999999 L 4.580984619140625 1.005 L 4.180484619140625 1.005 M 4.459484619140625 0.49949999999999983 L 4.873484619140625 0.08999999999999986 L 4.766984619140625 0.038999999999999924 L 4.766984619140625 0.014999999999999902 L 5.090984619140625 0.014999999999999902 L 5.090984619140625 0.038999999999999924 L 4.996484619140625 0.0764999999999999 L 4.612484619140625 0.45299999999999985 L 5.074484619140625 0.9404999999999999 L 5.168984619140625 0.9809999999999999 L 5.168984619140625 1.005 L 4.924484619140625 1.005 L 4.459484619140625 0.49949999999999983 M 6.1634765625 1.0199999999999998 Q 6.0089765625 1.0199999999999998 5.8964765625 0.9569999999999999 Q 5.7839765625 0.8939999999999999 5.7224765625 0.7844999999999999 Q 5.6609765625 0.6749999999999998 5.6609765625 0.5354999999999999 Q 5.6609765625 0.4274999999999999 5.7029765625 0.3314999999999999 Q 5.7449765625 0.23549999999999993 5.8177265625 0.16049999999999986 Q 5.8904765625 0.08549999999999991 5.9849765625 0.042749999999999844 Q 6.0794765625 -2.220446049250313e-16 6.1859765625000005 -2.220446049250313e-16 Q 6.2624765625 -2.220446049250313e-16 6.3149765625 0.009749999999999925 Q 6.3674765625 0.01949999999999985 6.4087265625 0.03524999999999989 Q 6.4499765625 0.05099999999999982 6.4919765625 0.07199999999999984 L 6.5009765625 0.33899999999999986 L 6.4739765625 0.33899999999999986 L 6.3704765625 0.1439999999999999 Q 6.3194765625 0.10799999999999987 6.2782265625 0.09149999999999991 Q 6.2369765625 0.07499999999999984 6.1859765625000005 0.07499999999999984 Q 6.0824765625 0.07499999999999984 5.9999765625 0.1289999999999999 Q 5.9174765625 0.18299999999999983 5.8702265625 0.2782499999999999 Q 5.8229765625 0.37349999999999983 5.8229765625 0.4979999999999999 Q 5.8229765625 0.6375 5.8687265625 0.73725 Q 5.9144765625 0.8369999999999999 5.9924765625 0.8894999999999998 Q 6.0704765625 0.942 6.1649765625 0.942 Q 6.2429765625 0.942 6.2962265625 0.9209999999999999 Q 6.3494765625 0.8999999999999999 6.3914765625 0.8714999999999999 L 6.4919765625 0.7034999999999999 L 6.5174765625 0.7034999999999999 L 6.4994765625 0.9449999999999998 Q 6.4334765625 0.9779999999999999 6.3584765625 0.9989999999999999 Q 6.2834765625 1.0199999999999998 6.1634765625 1.0199999999999998 M 7.23441064453125 1.0199999999999998 Q 7.11891064453125 1.0199999999999998 7.02741064453125 0.9779999999999999 Q 6.93591064453125 0.9359999999999999 6.88416064453125 0.8459999999999999 Q 6.83241064453125 0.7559999999999999 6.83241064453125 0.6104999999999998 L 6.83241064453125 0.09899999999999987 L 6.71091064453125 0.038999999999999924 L 6.71091064453125 0.014999999999999902 L 7.11141064453125 0.014999999999999902 L 7.11141064453125 0.038999999999999924 L 6.98991064453125 0.09899999999999987 L 6.98991064453125 0.5939999999999999 Q 6.98991064453125 0.7184999999999999 7.02891064453125 0.7912499999999999 Q 7.06791064453125 0.8639999999999999 7.13391064453125 0.8954999999999999 Q 7.19991064453125 0.9269999999999999 7.28241064453125 0.9269999999999999 Q 7.34841064453125 0.9269999999999999 7.40466064453125 0.8992499999999999 Q 7.46091064453125 0.8714999999999999 7.49466064453125 0.8092499999999999 Q 7.52841064453125 0.7469999999999999 7.52841064453125 0.6464999999999999 L 7.52841064453125 0.09599999999999986 L 7.38141064453125 0.038999999999999924 L 7.38141064453125 0.014999999999999902 L 7.75491064453125 0.014999999999999902 L 7.75491064453125 0.038999999999999924 L 7.63341064453125 0.09749999999999992 L 7.63341064453125 0.6104999999999998 Q 7.63341064453125 0.7559999999999999 7.58166064453125 0.8459999999999999 Q 7.52991064453125 0.9359999999999999 7.43991064453125 0.9779999999999999 Q 7.34991064453125 1.0199999999999998 7.23441064453125 1.0199999999999998 M 7.934879150390625 1.005 L 7.934879150390625 0.9809999999999999 L 8.056379150390624 0.9209999999999999 L 8.056379150390624 0.09899999999999987 L 7.934879150390625 0.038999999999999924 L 7.934879150390625 0.014999999999999902 L 8.351879150390625 0.014999999999999902 Q 8.509379150390625 0.014999999999999902 8.600129150390625 0.08024999999999982 Q 8.690879150390625 0.14549999999999985 8.690879150390625 0.25949999999999984 Q 8.690879150390625 0.3434999999999999 8.633879150390625 0.4079999999999999 Q 8.576879150390624 0.4724999999999999 8.483879150390624 0.5069999999999999 L 8.767379150390624 0.9254999999999999 L 8.867879150390625 0.9809999999999999 L 8.867879150390625 1.005 L 8.626379150390624 1.005 L 8.338379150390624 0.5489999999999999 L 8.213879150390625 0.5489999999999999 L 8.213879150390625 0.9194999999999999 L 8.326379150390625 0.9809999999999999 L 8.326379150390625 1.005 L 7.934879150390625 1.005 M 8.302379150390625 0.09749999999999992 L 8.213879150390625 0.09749999999999992 L 8.213879150390625 0.4694999999999999 L 8.311379150390625 0.4694999999999999 Q 8.404379150390625 0.4694999999999999 8.465129150390625 0.4162499999999999 Q 8.525879150390626 0.3629999999999999 8.525879150390626 0.28049999999999986 Q 8.525879150390626 0.19499999999999984 8.466629150390625 0.14624999999999988 Q 8.407379150390625 0.09749999999999992 8.302379150390625 0.09749999999999992 M 8.950382080078125 1.005 L 8.950382080078125 0.9809999999999999 L 9.071882080078124 0.9209999999999999 L 9.071882080078124 0.09899999999999987 L 8.950382080078125 0.038999999999999924 L 8.950382080078125 0.014999999999999902 L 9.703382080078125 0.014999999999999902 L 9.703382080078125 0.2729999999999999 L 9.679382080078126 0.2729999999999999 L 9.581882080078126 0.09749999999999992 L 9.229382080078125 0.09749999999999992 L 9.229382080078125 0.45299999999999985 L 9.478382080078125 0.45299999999999985 L 9.554882080078125 0.32699999999999985 L 9.578882080078126 0.32699999999999985 L 9.578882080078126 0.6584999999999999 L 9.554882080078125 0.6584999999999999 L 9.478382080078125 0.5354999999999999 L 9.229382080078125 0.5354999999999999 L 9.229382080078125 0.9224999999999999 L 9.622382080078125 0.9224999999999999 L 9.721382080078126 0.7244999999999999 L 9.745382080078125 0.7244999999999999 L 9.745382080078125 1.005 L 8.950382080078125 1.005" fill="#212121" fill-rule="nonzero"></path></g><g><path d=" M 1.8298626708984376 2.083875 L 1.8298626708984376 2.071875 L 1.8898626708984374 2.041875 L 1.8898626708984374 1.6308749999999999 L 1.8298626708984376 1.6008749999999998 L 1.8298626708984376 1.5888749999999998 L 2.0248626708984374 1.5888749999999998 Q 2.1133626708984377 1.5888749999999998 2.1669876708984375 1.621125 Q 2.2206126708984373 1.653375 2.2206126708984373 1.723125 Q 2.2206126708984373 1.7643749999999998 2.1924876708984375 1.79625 Q 2.1643626708984374 1.828125 2.1159876708984378 1.8468749999999998 Q 2.0676126708984377 1.8656249999999999 2.0068626708984376 1.8656249999999999 L 1.9573626708984375 1.8656249999999999 L 1.9573626708984375 2.041875 L 2.0248626708984374 2.071875 L 2.0248626708984374 2.083875 L 1.8298626708984376 2.083875 M 1.9573626708984375 1.630125 L 1.9573626708984375 1.8243749999999999 L 2.0211126708984377 1.8243749999999999 Q 2.0803626708984373 1.8243749999999999 2.1141126708984377 1.79775 Q 2.1478626708984376 1.7711249999999998 2.1478626708984376 1.7291249999999998 Q 2.1478626708984376 1.676625 2.1137376708984377 1.653375 Q 2.0796126708984373 1.630125 2.0158626708984375 1.630125 L 1.9573626708984375 1.630125 M 2.308363037109375 2.083875 L 2.308363037109375 2.071875 L 2.368363037109375 2.041875 L 2.368363037109375 1.6308749999999999 L 2.308363037109375 1.6008749999999998 L 2.308363037109375 1.5888749999999998 L 2.495863037109375 1.5888749999999998 L 2.495863037109375 1.6008749999999998 L 2.435863037109375 1.6308749999999999 L 2.435863037109375 1.807875 L 2.690863037109375 1.807875 L 2.690863037109375 1.6308749999999999 L 2.630863037109375 1.6008749999999998 L 2.630863037109375 1.5888749999999998 L 2.818363037109375 1.5888749999999998 L 2.818363037109375 1.6008749999999998 L 2.7583630371093752 1.6308749999999999 L 2.7583630371093752 2.041875 L 2.818363037109375 2.071875 L 2.818363037109375 2.083875 L 2.630863037109375 2.083875 L 2.630863037109375 2.071875 L 2.690863037109375 2.041875 L 2.690863037109375 1.849125 L 2.435863037109375 1.849125 L 2.435863037109375 2.041875 L 2.495863037109375 2.071875 L 2.495863037109375 2.083875 L 2.308363037109375 2.083875 M 2.8918612060546875 2.083875 L 2.8918612060546875 2.071875 L 2.9398612060546876 2.047125 L 3.1318612060546873 1.585125 L 3.1656112060546873 1.585125 L 3.3546112060546873 2.0448749999999998 L 3.4048612060546875 2.071875 L 3.4048612060546875 2.083875 L 3.2188612060546875 2.083875 L 3.2188612060546875 2.071875 L 3.2848612060546873 2.046375 L 3.2286112060546874 1.907625 L 3.0463612060546876 1.907625 L 2.9908612060546873 2.046375 L 3.0538612060546875 2.071875 L 3.0538612060546875 2.083875 L 2.8918612060546875 2.083875 M 3.0636112060546874 1.866375 L 3.2121112060546877 1.866375 L 3.1378612060546875 1.6818749999999998 L 3.0636112060546874 1.866375 M 3.4783612060546876 2.083875 L 3.4783612060546876 2.071875 L 3.5383612060546876 2.041875 L 3.5383612060546876 1.6308749999999999 L 3.4783612060546876 1.6008749999999998 L 3.4783612060546876 1.5888749999999998 L 3.6718612060546874 1.5888749999999998 Q 3.7506112060546877 1.5888749999999998 3.7959862060546876 1.6215 Q 3.8413612060546876 1.6541249999999998 3.8413612060546876 1.711125 Q 3.8413612060546876 1.7531249999999998 3.8128612060546874 1.7865 Q 3.7843612060546876 1.819875 3.7371112060546876 1.837125 L 3.8796112060546877 2.0448749999999998 L 3.9291112060546873 2.071875 L 3.9291112060546873 2.083875 L 3.8211112060546877 2.083875 L 3.6756112060546875 1.856625 L 3.6058612060546875 1.856625 L 3.6058612060546875 2.041125 L 3.6621112060546874 2.071875 L 3.6621112060546874 2.083875 L 3.4783612060546876 2.083875 M 3.6546112060546876 1.630125 L 3.6058612060546875 1.630125 L 3.6058612060546875 1.815375 L 3.6591112060546873 1.815375 Q 3.7063612060546873 1.815375 3.7374862060546876 1.7887499999999998 Q 3.7686112060546875 1.762125 3.7686112060546875 1.720875 Q 3.7686112060546875 1.678875 3.7378612060546876 1.6544999999999999 Q 3.7071112060546874 1.630125 3.6546112060546876 1.630125 M 3.9703692626953124 2.083875 L 3.9703692626953124 2.071875 L 4.029619262695313 2.041875 L 4.045369262695313 1.6316249999999999 L 3.9808692626953124 1.6008749999999998 L 3.9808692626953124 1.5888749999999998 L 4.119619262695313 1.5888749999999998 L 4.292869262695312 1.9878749999999998 L 4.4653692626953125 1.5888749999999998 L 4.597369262695312 1.5888749999999998 L 4.597369262695312 1.6008749999999998 L 4.5343692626953125 1.6308749999999999 L 4.547119262695313 2.041875 L 4.599619262695312 2.071875 L 4.599619262695312 2.083875 L 4.427119262695313 2.083875 L 4.427119262695313 2.071875 L 4.482619262695312 2.042625 L 4.475119262695312 1.672875 L 4.295869262695312 2.087625 L 4.262119262695313 2.087625 L 4.085869262695312 1.6781249999999999 L 4.076119262695313 2.042625 L 4.1368692626953125 2.071875 L 4.1368692626953125 2.083875 L 3.9703692626953124 2.083875 M 4.6693575439453125 2.083875 L 4.6693575439453125 2.071875 L 4.717357543945313 2.047125 L 4.909357543945313 1.585125 L 4.943107543945312 1.585125 L 5.132107543945312 2.0448749999999998 L 5.1823575439453125 2.071875 L 5.1823575439453125 2.083875 L 4.9963575439453125 2.083875 L 4.9963575439453125 2.071875 L 5.062357543945312 2.046375 L 5.006107543945313 1.907625 L 4.823857543945312 1.907625 L 4.768357543945313 2.046375 L 4.8313575439453125 2.071875 L 4.8313575439453125 2.083875 L 4.6693575439453125 2.083875 M 4.841107543945313 1.866375 L 4.989607543945312 1.866375 L 4.915357543945312 1.6818749999999998 L 4.841107543945313 1.866375 M 5.696857543945312 2.0913749999999998 Q 5.642857543945312 2.0913749999999998 5.597482543945312 2.07225 Q 5.552107543945312 2.053125 5.518357543945313 2.019 Q 5.484607543945312 1.984875 5.4658575439453125 1.938375 Q 5.447107543945313 1.891875 5.447107543945313 1.8363749999999999 Q 5.447107543945313 1.780875 5.4658575439453125 1.734375 Q 5.484607543945312 1.687875 5.518357543945313 1.6537499999999998 Q 5.552107543945312 1.6196249999999999 5.597482543945312 1.6004999999999998 Q 5.642857543945312 1.581375 5.696857543945312 1.581375 Q 5.750857543945313 1.581375 5.796607543945313 1.6004999999999998 Q 5.842357543945313 1.6196249999999999 5.876107543945312 1.6537499999999998 Q 5.9098575439453125 1.687875 5.928607543945312 1.734375 Q 5.947357543945312 1.780875 5.947357543945312 1.8363749999999999 Q 5.947357543945312 1.891875 5.928607543945312 1.938375 Q 5.9098575439453125 1.984875 5.876107543945312 2.019 Q 5.842357543945313 2.053125 5.796607543945313 2.07225 Q 5.750857543945313 2.0913749999999998 5.696857543945312 2.0913749999999998 M 5.712607543945312 2.053875 Q 5.760607543945312 2.053875 5.796982543945313 2.029875 Q 5.833357543945312 2.005875 5.853982543945312 1.962375 Q 5.874607543945313 1.9188749999999999 5.874607543945313 1.8596249999999999 Q 5.874607543945313 1.786875 5.849107543945313 1.7325 Q 5.823607543945313 1.6781249999999999 5.780482543945313 1.6481249999999998 Q 5.737357543945312 1.618125 5.684107543945313 1.618125 Q 5.636107543945313 1.618125 5.598982543945312 1.64175 Q 5.561857543945313 1.665375 5.540857543945313 1.708875 Q 5.519857543945313 1.7523749999999998 5.519857543945313 1.8116249999999998 Q 5.519857543945313 1.884375 5.545732543945313 1.939125 Q 5.571607543945312 1.9938749999999998 5.615107543945313 2.023875 Q 5.658607543945313 2.053875 5.712607543945312 2.053875 M 6.044862670898437 2.083875 L 6.044862670898437 2.071875 L 6.104862670898438 2.041875 L 6.104862670898438 1.632375 L 6.0456126708984375 1.6008749999999998 L 6.0456126708984375 1.5888749999999998 L 6.155862670898437 1.5888749999999998 L 6.442362670898437 1.948875 L 6.442362670898437 1.629375 L 6.367362670898437 1.6008749999999998 L 6.367362670898437 1.5888749999999998 L 6.554112670898437 1.5888749999999998 L 6.554112670898437 1.6008749999999998 L 6.494862670898438 1.630125 L 6.494862670898438 2.087625 L 6.467112670898437 2.087625 L 6.157362670898437 1.696875 L 6.157362670898437 2.042625 L 6.232362670898437 2.071875 L 6.232362670898437 2.083875 L 6.044862670898437 2.083875 M 6.83162109375 2.083875 L 6.83162109375 2.071875 L 6.89087109375 2.041875 L 6.90662109375 1.6316249999999999 L 6.84212109375 1.6008749999999998 L 6.84212109375 1.5888749999999998 L 6.98087109375 1.5888749999999998 L 7.15412109375 1.9878749999999998 L 7.32662109375 1.5888749999999998 L 7.45862109375 1.5888749999999998 L 7.45862109375 1.6008749999999998 L 7.39562109375 1.6308749999999999 L 7.4083710937500005 2.041875 L 7.46087109375 2.071875 L 7.46087109375 2.083875 L 7.28837109375 2.083875 L 7.28837109375 2.071875 L 7.34387109375 2.042625 L 7.3363710937499995 1.672875 L 7.15712109375 2.087625 L 7.12337109375 2.087625 L 6.94712109375 1.6781249999999999 L 6.93737109375 2.042625 L 6.99812109375 2.071875 L 6.99812109375 2.083875 L 6.83162109375 2.083875 M 7.804355712890625 2.0913749999999998 Q 7.750355712890625 2.0913749999999998 7.704980712890625 2.07225 Q 7.659605712890625 2.053125 7.625855712890625 2.019 Q 7.592105712890625 1.984875 7.573355712890625 1.938375 Q 7.554605712890625 1.891875 7.554605712890625 1.8363749999999999 Q 7.554605712890625 1.780875 7.573355712890625 1.734375 Q 7.592105712890625 1.687875 7.625855712890625 1.6537499999999998 Q 7.659605712890625 1.6196249999999999 7.704980712890625 1.6004999999999998 Q 7.750355712890625 1.581375 7.804355712890625 1.581375 Q 7.858355712890625 1.581375 7.904105712890625 1.6004999999999998 Q 7.949855712890625 1.6196249999999999 7.983605712890625 1.6537499999999998 Q 8.017355712890625 1.687875 8.036105712890626 1.734375 Q 8.054855712890625 1.780875 8.054855712890625 1.8363749999999999 Q 8.054855712890625 1.891875 8.036105712890626 1.938375 Q 8.017355712890625 1.984875 7.983605712890625 2.019 Q 7.949855712890625 2.053125 7.904105712890625 2.07225 Q 7.858355712890625 2.0913749999999998 7.804355712890625 2.0913749999999998 M 7.820105712890625 2.053875 Q 7.868105712890625 2.053875 7.904480712890625 2.029875 Q 7.940855712890625 2.005875 7.961480712890625 1.962375 Q 7.982105712890625 1.9188749999999999 7.982105712890625 1.8596249999999999 Q 7.982105712890625 1.786875 7.956605712890625 1.7325 Q 7.931105712890625 1.6781249999999999 7.887980712890625 1.6481249999999998 Q 7.844855712890625 1.618125 7.791605712890625 1.618125 Q 7.743605712890625 1.618125 7.706480712890625 1.64175 Q 7.669355712890625 1.665375 7.648355712890625 1.708875 Q 7.627355712890625 1.7523749999999998 7.627355712890625 1.8116249999999998 Q 7.627355712890625 1.884375 7.653230712890625 1.939125 Q 7.679105712890625 1.9938749999999998 7.722605712890625 2.023875 Q 7.766105712890625 2.053875 7.820105712890625 2.053875 M 8.15611083984375 2.083875 L 8.15611083984375 2.071875 L 8.21611083984375 2.041875 L 8.21611083984375 1.6308749999999999 L 8.15611083984375 1.6008749999999998 L 8.15611083984375 1.5888749999999998 L 8.34586083984375 1.5888749999999998 Q 8.39536083984375 1.5888749999999998 8.43473583984375 1.6012499999999998 Q 8.47411083984375 1.6136249999999999 8.49661083984375 1.638 Q 8.51911083984375 1.662375 8.51911083984375 1.699875 Q 8.51911083984375 1.738125 8.49361083984375 1.77 Q 8.46811083984375 1.801875 8.42011083984375 1.815375 Q 8.48686083984375 1.8243749999999999 8.52436083984375 1.857 Q 8.56186083984375 1.8896249999999999 8.56186083984375 1.9398749999999998 Q 8.56186083984375 1.981125 8.53598583984375 2.01375 Q 8.51011083984375 2.046375 8.46511083984375 2.065125 Q 8.42011083984375 2.083875 8.36311083984375 2.083875 L 8.15611083984375 2.083875 M 8.32861083984375 1.630125 L 8.28361083984375 1.630125 L 8.28361083984375 1.807875 L 8.33311083984375 1.807875 Q 8.38636083984375 1.807875 8.41636083984375 1.785 Q 8.44636083984375 1.762125 8.44636083984375 1.720875 Q 8.44636083984375 1.630125 8.32861083984375 1.630125 M 8.35711083984375 1.849125 L 8.28361083984375 1.849125 L 8.28361083984375 2.042625 L 8.36236083984375 2.042625 Q 8.42161083984375 2.042625 8.45536083984375 2.015625 Q 8.48911083984375 1.9886249999999999 8.48911083984375 1.945875 Q 8.48911083984375 1.8948749999999999 8.45498583984375 1.8719999999999999 Q 8.42086083984375 1.849125 8.35711083984375 1.849125 M 8.653375854492188 2.083875 L 8.653375854492188 2.071875 L 8.713375854492188 2.041875 L 8.713375854492188 1.6308749999999999 L 8.653375854492188 1.6008749999999998 L 8.653375854492188 1.5888749999999998 L 8.840875854492188 1.5888749999999998 L 8.840875854492188 1.6008749999999998 L 8.780875854492187 1.6308749999999999 L 8.780875854492187 2.041875 L 8.840875854492188 2.071875 L 8.840875854492188 2.083875 L 8.653375854492188 2.083875 M 8.942136840820313 2.083875 L 8.942136840820313 2.071875 L 9.002136840820313 2.041875 L 9.002136840820313 1.6308749999999999 L 8.942136840820313 1.6008749999999998 L 8.942136840820313 1.5888749999999998 L 9.137136840820313 1.5888749999999998 L 9.137136840820313 1.6008749999999998 L 9.069636840820312 1.6308749999999999 L 9.069636840820312 2.042625 L 9.251886840820312 2.042625 L 9.302886840820312 1.9173749999999998 L 9.314886840820312 1.9173749999999998 L 9.314886840820312 2.083875 L 8.942136840820313 2.083875 M 9.408643798828125 2.083875 L 9.408643798828125 2.071875 L 9.468643798828126 2.041875 L 9.468643798828126 1.6308749999999999 L 9.408643798828125 1.6008749999999998 L 9.408643798828125 1.5888749999999998 L 9.775393798828125 1.5888749999999998 L 9.775393798828125 1.7178749999999998 L 9.763393798828124 1.7178749999999998 L 9.716893798828124 1.630125 L 9.536143798828125 1.630125 L 9.536143798828125 1.807875 L 9.663643798828126 1.807875 L 9.701143798828125 1.745625 L 9.713143798828124 1.745625 L 9.713143798828124 1.909875 L 9.701143798828125 1.909875 L 9.663643798828126 1.849125 L 9.536143798828125 1.849125 L 9.536143798828125 2.042625 L 9.737893798828125 2.042625 L 9.784393798828125 1.9473749999999999 L 9.796393798828126 1.9473749999999999 L 9.796393798828126 2.083875 L 9.408643798828125 2.083875" fill="#390c14" fill-rule="nonzero"></path></g><g clip-path="url(#SvgjsClipPath1002)"><g clip-path="url(#SvgjsClipPath1000d5c38817-54a5-409d-85ac-e798b59bed89)"><path d=" M 14.728549362847275 0.7223769391939716 C 14.732066721887282 0.7139978290606377 14.734993669340984 0.7053829476376237 14.737308776311973 0.6965953665736613 C 14.786418992001277 0.5461912085938019 14.811321968732205 0.38893973129288195 14.811086516524908 0.23072099477618835 C 14.811086516524908 -0.528277666777941 14.251612845179444 -1.143649038480573 13.561470397716334 -1.143649038480573 C 13.133297625109682 -1.143649038480573 12.755514055732917 -0.906603055544274 12.530388099367132 -0.5454352807809492 L 12.530388099367132 -0.5454352807809492 L 12.53007203805655 -0.5449386130071785 L 12.529801128361765 -0.5454352807809492 L 12.529801128361765 -0.5454352807809492 C 12.30467517199598 -0.9066482071600712 11.926846451003417 -1.143649038480573 11.49858337516517 -1.143649038480573 C 10.808531230933653 -1.143649038480573 10.249012407972392 -0.528277666777941 10.249012407972392 0.23072099477618924 C 10.24879153238624 0.3889421521061316 10.273709759038745 0.5461936888648298 10.322835299801138 0.6965953665736953 C 10.325125014757706 0.7053961942525702 10.328068035123051 0.7140139615787882 10.331639864881618 0.7223769391939716 C 10.33227198750278 0.7241378522100697 10.33294926173974 0.7258084619945726 10.333581384360905 0.7275693750106713 C 10.338954426640795 0.7429209243817843 10.34441777215228 0.7582724737528972 10.35028748220594 0.7732628101976302 C 10.932743325992273 2.339436907361706 12.529846279977562 3.2274788868647772 12.529846279977562 3.2274788868647772 L 12.530433250982927 3.2274788868647772 C 12.530433250982927 3.2274788868647772 14.127581356584011 2.339436907361706 14.709946897138753 0.7732628101976302 C 14.71590691042401 0.7582724737528972 14.721325104319694 0.7429209243817843 14.726698146599585 0.7275693750106713 Z" fill="#9fd3cc" transform="matrix(1,0,0,1,0,0)" fill-rule="nonzero"></path></g><g clip-path="url(#SvgjsClipPath1000d5c38817-54a5-409d-85ac-e798b59bed89)"><path d=" M 14.560269290770403 0.6663889356052071 C 14.563548789922995 0.6586637203444416 14.56626497963003 0.6507113204799586 14.568396581613932 0.6425940340799827 C 14.61370473665481 0.5029978242513786 14.63668396931087 0.3571223638956247 14.636485218236395 0.210357616051565 C 14.636485218236395 -0.4940075903877227 14.119860430282657 -1.1008001550888507 13.482590524918294 -1.1008001550888507 C 13.087152673764749 -1.1008001550888507 12.738266138498313 -0.9398797963869517 12.530342947751333 -0.6047645039387208 L 12.530342947751333 -0.5723907954119923 L 12.530342947751333 -0.636957606002261 L 12.53007203805655 -0.5451192194703683 L 12.53007203805655 -0.636957606002261 L 12.53007203805655 -0.6066157201864142 C 12.32210369569377 -0.9417761642504424 11.973262312043133 -1.1008001550888515 11.57777930927379 -1.1008001550888515 C 10.940509403909426 -1.1008001550888515 10.423884615955687 -0.4940978936193188 10.423884615955687 0.2103576160515641 C 10.423690908354168 0.35711843642509633 10.446654411890353 0.5029907783972158 10.491928100962317 0.642594034079871 C 10.494075150292593 0.6507122831493763 10.496806419721613 0.6586646532548595 10.500100543421679 0.6663889356052055 C 10.500732666042843 0.6681046970055062 10.50136478866401 0.6697301551742125 10.501906608053577 0.6714007649587161 C 10.50687328579129 0.6855783723190962 10.511975418376396 0.6997108280636797 10.517393612272084 0.7136626773450743 C 11.055239659650596 2.167002886631472 12.530117189672346 2.991065026549641 12.530117189672346 2.991065026549641 L 12.53061385744612 2.991065026549641 C 12.53061385744612 2.991065026549641 14.005536539083671 2.167002886631472 14.54329228323059 0.7136626773450743 C 14.548755628742075 0.6997108280636806 14.55381260971138 0.6855783723190969 14.55882443906489 0.6714007649587161 C 14.559005045528076 0.6697301551742143 14.559682319765036 0.6679240905423189 14.560269290770403 0.6663889356052071 Z" fill="#ffffff" transform="matrix(1,0,0,1,0,0)" fill-rule="nonzero"></path></g><g clip-path="url(#SvgjsClipPath1000d5c38817-54a5-409d-85ac-e798b59bed89)"><path d=" M 10.594783481748806 0.07237427817474162 L 10.594783481748806 0.07237427817474162 C 10.720801641439321 -0.7012986585135409 11.31720933450705 -0.8969857613794296 11.342539390969385 -0.9049324457597704 L 11.342539390969385 -0.9049324457597704 C 11.32032479599707 -0.8978887936953781 10.825553390089269 -0.5765447440653518 10.594783481748806 0.07237427817474162 Z" fill="#9fd3cc" transform="matrix(1,0,0,1,0,0)" fill-rule="nonzero"></path></g><g clip-path="url(#SvgjsClipPath1000d5c38817-54a5-409d-85ac-e798b59bed89)"><path d=" M 14.443778122013136 0.07237427817474162 L 14.443778122013136 0.07237427817474162 C 14.317805113938416 -0.7012986585135409 13.721352269254892 -0.8969857613794296 13.696067364408353 -0.9049324457597704 L 13.696067364408353 -0.9049324457597704 C 13.718372262612265 -0.8978887936953781 14.213143668520068 -0.5765447440653518 14.443778122013136 0.07237427817474162 Z" fill="#9fd3cc" transform="matrix(1,0,0,1,0,0)" fill-rule="nonzero"></path></g><g clip-path="url(#SvgjsClipPath1000d5c38817-54a5-409d-85ac-e798b59bed89)"><path d=" M 11.904180339873122 3.041905745937504 C 11.530164844500543 2.8134980227518307 11.191506903988346 2.5316988399486973 10.898924765760025 2.205426911675051 C 10.634285120997845 1.9032982155264406 10.428043916234882 1.55465856629014 10.29068734935338 1.1772343167368802 L 10.290687349353384 1.1772343167368802 C 10.296060391633274 1.1881610077598497 10.83589311010687 2.2812364745988702 11.904180339873122 3.0419960491690987 Z" fill="#72acaf" transform="matrix(1,0,0,1,0,0)" fill-rule="nonzero"></path></g><g clip-path="url(#SvgjsClipPath1000d5c38817-54a5-409d-85ac-e798b59bed89)"><path d=" M 13.155828281392578 3.041905745937504 C 13.529864262647854 2.813507928495604 13.868538475359326 2.5317078627110647 14.161129007121472 2.205426911675053 C 14.425726166274979 1.9032754612015959 14.631948858188387 1.5546412265874796 14.769321271912325 1.1772343167368788 L 14.769321271912322 1.1772343167368788 C 14.76399338124823 1.1881610077598497 14.224115511158836 2.2812364745988702 13.155828281392578 3.0419960491690987 Z" fill="#72acaf" transform="matrix(1,0,0,1,0,0)" fill-rule="nonzero"></path></g><g clip-path="url(#SvgjsClipPath1000d5c38817-54a5-409d-85ac-e798b59bed89)"><path d=" M 13.467825946552546 1.909006553965185 L 13.467825946552546 0.3171411874123935 L 13.465748972225867 0.3171411874123935 C 13.440825280305706 0.0020732123782043477 13.164045875467703 -0.18964054829751464 13.012020385077891 -0.29484381310543417 C 12.982119108264335 -0.3145053436336044 12.953272540348689 -0.33572580738764346 12.925600192441687 -0.35841728814816065 L 12.925600192441687 -0.4247450117545257 C 12.982331178771767 -0.4556269698821592 13.018952644520468 -0.5137562805943842 13.0223149534797 -0.5782605054656527 C 13.021581928204101 -0.6217279506837257 13.003562495486886 -0.6631125269963916 12.97224181156039 -0.6932616709016064 C 13.003590742722022 -0.7233538879592469 13.02161785250065 -0.764723585332217 13.022314953479693 -0.8081725331059639 C 13.022314953479697 -0.9715762306767196 12.772716821351722 -1.0570030877653815 12.526098695866377 -1.0570030877653815 C 12.27948057038103 -1.0570030877653815 12.029882438253058 -0.9715762306767196 12.029882438253058 -0.8081725331059639 C 12.030579539232106 -0.764723585332217 12.048606649010736 -0.7233538879592469 12.079955580172365 -0.6932616709016055 C 12.04863489624587 -0.6631125269963899 12.030615463528655 -0.621727950683724 12.029882438253058 -0.5782605054656527 C 12.033243413321967 -0.5137804429887776 12.06982315428195 -0.45566309753833467 12.126506896059473 -0.4247450117545257 L 12.126506896059473 -0.3584172881481599 C 12.09888481071613 -0.3357215746322755 12.070083101700744 -0.3145008492038781 12.040222158270662 -0.29484381310543506 C 11.888196667880845 -0.18964054829751464 11.611281808195454 0.0020732123782036815 11.586358116275294 0.3171411874123935 L 11.5845520516434 0.3171411874123935 L 11.5845520516434 1.9089162507335895 C 11.583952002439553 1.917107820264143 11.583952002439553 1.925332311812614 11.5845520516434 1.9335238813431674 C 11.5845520516434 1.9351041878960755 11.5845520516434 1.9366844944489845 11.5845520516434 1.9380390429229064 C 11.5845520516434 2.1868695975823242 11.9893814388828 2.374519712836278 12.526279302329563 2.374519712836278 C 13.063177165776331 2.374519712836278 13.468006553015732 2.1868695975823242 13.468006553015732 1.9380390429229064 C 13.468006553015732 1.9364587363699979 13.468006553015732 1.9348332782012916 13.468006553015732 1.9332078200325857 C 13.468512953663321 1.9251464499387967 13.468452603054885 1.9170594684086013 13.467825946552546 1.909006553965185 Z" fill="#ffffff" transform="matrix(1,0,0,1,0,0)" fill-rule="nonzero"></path></g><g clip-path="url(#SvgjsClipPath1000d5c38817-54a5-409d-85ac-e798b59bed89)"><path d=" M 13.188156838303513 0.32775181712477996 C 13.188156838303513 0.48171882699388124 12.89169132897785 0.6065178930578683 12.526098695866377 0.6065178930578683 C 12.160506062754909 0.6065178930578683 11.863995401813447 0.48171882699388124 11.863995401813447 0.32775181712477996 C 11.863995401813447 0.1737848072556789 12.160415759523314 0.0488954379600981 12.526098695866377 0.0488954379600981 C 12.89178163220944 0.0488954379600981 13.188156838303513 0.17373965563988247 13.188156838303513 0.32775181712477996 Z" fill="#72acaf" transform="matrix(1,0,0,1,0,0)" fill-rule="nonzero"></path></g><g clip-path="url(#SvgjsClipPath1000d5c38817-54a5-409d-85ac-e798b59bed89)"><path d=" M 12.526098695866377 0.6638152935047568 C 12.115986569578679 0.6638152935047568 11.806698001366557 0.5193301229531073 11.806698001366557 0.32775181712478085 C 11.806698001366557 0.13617351129645439 12.115986569578682 -0.00835681087099216 12.526098695866377 -0.00835681087099216 C 12.936210822154074 -0.00835681087099216 13.245499390366195 0.13612835968065617 13.245499390366195 0.32775181712478085 C 13.245499390366195 0.5193752745689055 12.936210822154074 0.6638152935047568 12.526098695866377 0.6638152935047568 Z M 12.526098695866377 0.10623799002278367 C 12.179921257547788 0.10623799002278367 11.921292802260334 0.2231355233222274 11.921292802260334 0.32775181712478085 C 11.921292802260334 0.4323681109273343 12.179921257547788 0.5492204926109798 12.526098695866377 0.5492204926109798 C 12.872276134184968 0.5492204926109798 13.130859437856621 0.43223265607994255 13.130859437856621 0.32775181712478085 C 13.130859437856621 0.22327097816961916 12.872185830953374 0.10623799002278367 12.526098695866377 0.10623799002278367 Z" fill="#9fd3cc" transform="matrix(1,0,0,1,0,0)" fill-rule="nonzero"></path></g><g clip-path="url(#SvgjsClipPath1000d5c38817-54a5-409d-85ac-e798b59bed89)"><path d=" M 12.526098695866377 1.58070915550236 C 12.115986569578679 1.58070915550236 11.806698001366557 1.7022121536131372 11.806698001366557 1.8632228155466306 C 11.806698001366557 2.024233477480124 12.115986569578682 2.1458267788224963 12.526098695866377 2.1458267788224963 C 12.936210822154074 2.1458267788224963 13.245499390366195 2.024323780711719 13.245499390366195 1.8632228155466306 C 13.245499390366195 1.7021218503815425 12.936210822154074 1.58070915550236 12.526098695866377 1.58070915550236 Z" fill="#9fd3cc" transform="matrix(1,0,0,1,0,0)" fill-rule="nonzero"></path></g><g clip-path="url(#SvgjsClipPath1000d5c38817-54a5-409d-85ac-e798b59bed89)"><path d=" M 12.953368436157081 -0.5782605054656518 C 12.953368436157081 -0.47892695071139335 12.762061040023536 -0.3983764681288494 12.526098695866375 -0.3983764681288494 C 12.290136351709215 -0.3983764681288494 12.098828955575671 -0.4788817990955969 12.098828955575671 -0.5782605054656518 C 12.098828955575671 -0.6776392118357075 12.290136351709215 -0.7581445428024551 12.526098695866375 -0.7581445428024551 C 12.762061040023536 -0.7581445428024551 12.953368436157081 -0.6775940602199111 12.953368436157081 -0.5782605054656518 Z" fill="#72acaf" transform="matrix(1,0,0,1,0,0)" fill-rule="nonzero"></path></g><g clip-path="url(#SvgjsClipPath1000d5c38817-54a5-409d-85ac-e798b59bed89)"><path d=" M 12.526098695866377 -0.3292944959588424 C 12.279525721996828 -0.3292944959588424 12.029882438253058 -0.41481165627909977 12.029882438253058 -0.5782153538498553 C 12.029882438253058 -0.7416190514206109 12.279525721996828 -0.8270910601250703 12.526098695866377 -0.8270910601250703 C 12.772671669735924 -0.8270910601250703 13.022314953479697 -0.7416190514206109 13.022314953479697 -0.5782153538498553 C 13.022314953479697 -0.41481165627909977 12.772716821351722 -0.3292944959588424 12.526098695866377 -0.3292944959588424 Z M 12.526098695866377 -0.6891077222482453 C 12.293342116430834 -0.6891077222482453 12.167820624514086 -0.610408455913394 12.167820624514086 -0.5782153538498546 C 12.167820624514086 -0.5460222517863151 12.29334211643083 -0.46727783383566734 12.526098695866377 -0.46727783383566734 C 12.758855275301926 -0.46727783383566734 12.884331615602875 -0.546022251786316 12.884331615602875 -0.5782153538498546 C 12.884331615602875 -0.610408455913394 12.758810123686127 -0.6891077222482461 12.526098695866377 -0.6891077222482461 Z" fill="#72acaf" transform="matrix(1,0,0,1,0,0)" fill-rule="nonzero"></path></g><g clip-path="url(#SvgjsClipPath1000d5c38817-54a5-409d-85ac-e798b59bed89)"><path d=" M 11.722354783057035 0.3631958355257321 L 11.5845520516434 0.3631958355257321 C 11.5845520516434 0.020495071623539918 11.88106271258486 -0.184628718944004 12.04058337119704 -0.2948438131054334 C 12.070274844871706 -0.31451534276114135 12.098910469703199 -0.33573584789942645 12.12637144121208 -0.3584172881481591 L 12.12637144121208 -0.49522668401425196 L 12.264399930704705 -0.49522668401425196 L 12.264399930704705 -0.3419369483821122 C 12.264399930704705 -0.2822465122979616 12.212565875769299 -0.24644128097063156 12.118515060063336 -0.1813778026065922 C 11.96084561769885 -0.07220119560850224 11.722354783057035 0.09278280851516163 11.722354783057035 0.3631958355257321 Z" fill="#72acaf" transform="matrix(1,0,0,1,0,0)" fill-rule="nonzero"></path></g><g clip-path="url(#SvgjsClipPath1000d5c38817-54a5-409d-85ac-e798b59bed89)"><path d=" M 13.467825946552546 0.3631958355257321 L 13.32984260867572 0.3631958355257321 C 13.32984260867572 0.09278280851516163 13.091306622418108 -0.07220119560850224 12.933501725206227 -0.1813778026065922 C 12.839405757884467 -0.24644128097063156 12.787616854564861 -0.2822465122979616 12.787616854564861 -0.3419369483821122 L 12.787616854564861 -0.49522668401425196 L 12.925600192441683 -0.49522668401425196 L 12.925600192441683 -0.3584172881481591 C 12.953272540348689 -0.3357258073876419 12.982119108264335 -0.3145053436336027 13.012020385077887 -0.2948438131054326 C 13.171315285611083 -0.1846287189440048 13.467825946552546 0.020495071623539918 13.467825946552546 0.3631958355257321 Z" fill="#72acaf" transform="matrix(1,0,0,1,0,0)" fill-rule="nonzero"></path></g><g clip-path="url(#SvgjsClipPath1000d5c38817-54a5-409d-85ac-e798b59bed89)"><path d=" M 12.953368436157081 -0.8081273814901667 C 12.953368436157081 -0.7087938267359075 12.762061040023536 -0.6281981925375663 12.526098695866375 -0.6281981925375663 C 12.290136351709215 -0.6281981925375663 12.098828955575671 -0.7087938267359075 12.098828955575671 -0.8081273814901667 C 12.098828955575671 -0.9074609362444253 12.290136351709215 -0.9880114188269692 12.526098695866375 -0.9880114188269692 C 12.762061040023536 -0.9880114188269692 12.953368436157081 -0.9075060878602217 12.953368436157081 -0.8081273814901667 Z" fill="#9fd3cc" transform="matrix(1,0,0,1,0,0)" fill-rule="nonzero"></path></g><g clip-path="url(#SvgjsClipPath1000d5c38817-54a5-409d-85ac-e798b59bed89)"><path d=" M 12.526098695866377 -0.559251675214951 C 12.279525721996828 -0.559251675214951 12.029882438253058 -0.6447688355352084 12.029882438253058 -0.8081273814901667 C 12.029882438253058 -0.9714859274451243 12.279525721996828 -1.0569579361495836 12.526098695866377 -1.0569579361495836 C 12.772671669735924 -1.0569579361495836 13.022314953479697 -0.9715310790609215 13.022314953479697 -0.8081273814901667 C 13.022314953479697 -0.6447236839194112 12.772716821351722 -0.559251675214951 12.526098695866377 -0.559251675214951 Z M 12.526098695866377 -0.9190197498885567 C 12.293342116430834 -0.9190197498885567 12.167820624514086 -0.8403204835537061 12.167820624514086 -0.8081273814901667 C 12.167820624514086 -0.7759342794266265 12.29334211643083 -0.6972350130917759 12.526098695866377 -0.6972350130917759 C 12.758855275301926 -0.6972350130917759 12.884331615602875 -0.7759794310424246 12.884331615602875 -0.8081273814901667 C 12.884331615602875 -0.840275331937908 12.758810123686127 -0.9190197498885567 12.526098695866377 -0.9190197498885567 Z" fill="#72acaf" transform="matrix(1,0,0,1,0,0)" fill-rule="nonzero"></path></g><g clip-path="url(#SvgjsClipPath1000d5c38817-54a5-409d-85ac-e798b59bed89)"><path d=" M 13.467825946552546 1.909006553965185 L 13.467825946552546 0.3171411874123935 L 13.328939576359772 0.3171411874123935 L 13.328939576359772 0.45512452528921754 L 13.329842608675717 0.45512452528921754 L 13.329842608675717 1.913160502618544 L 13.330429579681084 1.9221908257780225 C 13.330429579681084 1.9234550710203493 13.330429579681084 1.9247644678784739 13.330429579681084 1.926073864736598 C 13.330429579681084 1.9300923585425656 13.330068366754706 1.9340657007327362 13.330068366754706 1.938129346154501 C 13.330068366754706 2.0790926906739537 12.986374267304969 2.2366718298068458 12.526369605561158 2.2366718298068458 C 12.066364943817348 2.2366718298068458 11.722670844367611 2.0790926906739537 11.722670844367611 1.938129346154501 C 11.722670844367611 1.9340657007327362 11.722670844367611 1.9300923585425656 11.722309631441233 1.9260287131208007 C 11.722309631441233 1.9247644678784739 11.722309631441233 1.923500222636147 11.72203872174645 1.9222811290096171 L 11.722670844367613 1.9185786965142313 L 11.722670844367613 0.3171411874123935 L 11.5845520516434 0.3171411874123935 L 11.5845520516434 1.9089162507335895 C 11.583952002439553 1.917107820264143 11.583952002439553 1.925332311812614 11.5845520516434 1.9335238813431674 C 11.5845520516434 1.9351041878960755 11.5845520516434 1.9366844944489845 11.5845520516434 1.9380390429229064 C 11.5845520516434 2.1868695975823242 11.9893814388828 2.374519712836278 12.526279302329563 2.374519712836278 C 13.063177165776331 2.374519712836278 13.468006553015732 2.1868695975823242 13.468006553015732 1.9380390429229064 C 13.468006553015732 1.9364587363699979 13.468006553015732 1.9348332782012916 13.468006553015732 1.9332078200325857 C 13.468512953663321 1.9251464499387967 13.468452603054885 1.9170594684086013 13.467825946552546 1.909006553965185 Z" fill="#72acaf" transform="matrix(1,0,0,1,0,0)" fill-rule="nonzero"></path></g><g clip-path="url(#SvgjsClipPath1000d5c38817-54a5-409d-85ac-e798b59bed89)"><path d=" M 13.245499390366197 1.8632679671624275 L 11.80669800136656 1.8632679671624275 L 11.80669800136656 0.3277518171247795 L 12.126055379901501 0.5285410525757737 L 12.51553321776979 0.5953202923401144 L 12.969758472691534 0.5358104627191536 L 13.245499390366197 0.3277518171247795 L 13.245499390366197 1.8632679671624275 Z" fill="#9fd3cc" transform="matrix(1,0,0,1,0,0)" fill-rule="nonzero"></path></g><g clip-path="url(#SvgjsClipPath1000d5c38817-54a5-409d-85ac-e798b59bed89)"><path d=" M 12.953368436157081 0.47950639781980886 C 12.805135681494248 0.5578896028440785 12.848120019733361 0.6944280890153871 12.769556208245902 0.7112696417078128 C 12.723591863364161 0.7211578455674414 12.430467573607503 0.6641313548153376 12.220602863381233 0.580329955895381 C 12.071873440944628 0.52100073273761 11.964999566352205 0.4214865715201619 12.017420592292977 0.4414435857026091 C 12.41132328850941 0.5908051307603757 12.471736150446315 0.3594030997987514 12.628141347568477 0.2791686785267884 C 12.855570036339932 0.16263235815372434 13.18612501559263 0.3563779415403252 12.953368436157081 0.47950639781980886 Z" fill="#9fd3cc" transform="matrix(1,0,0,1,0,0)" fill-rule="nonzero"></path></g><g clip-path="url(#SvgjsClipPath1000d5c38817-54a5-409d-85ac-e798b59bed89)"><path d=" M 13.126750640819061 1.2061765024630082 C 13.126750640819061 1.4378945947352153 12.857827617129804 1.6256801648365609 12.52623415071377 1.6256801648365609 C 12.194640684297735 1.6256801648365609 11.925717660608477 1.4378945947352144 11.925717660608477 1.2061765024630082 C 11.925717660608477 0.974458410190802 12.194640684297735 0.7865825368578605 12.52623415071377 0.7865825368578605 C 12.857827617129804 0.7865825368578605 13.126750640819061 0.9744132585750038 13.126750640819061 1.2061765024630082 Z" fill="#ffffff" transform="matrix(1,0,0,1,0,0)" fill-rule="nonzero"></path></g></g></g><defs><clipPath id="SvgjsClipPath1002"><path d=" M 10.248876953125 -1.1436490384805746 h 4.562209563399907 v 4.371173076961149 h -4.562209563399907 Z"></path></clipPath><clipPath id="SvgjsClipPath1000d5c38817-54a5-409d-85ac-e798b59bed89"><path d=" M 10.248876953125 -1.1436490384805742 L 14.811086516524908 -1.1436490384805742 L 14.811086516524908 3.2275240384805746 L 10.248876953125 3.2275240384805746 Z"></path></clipPath></defs></svg>